<svg width="24" height="19" viewBox="0 0 24 19" fill="none" xmlns="http://www.w3.org/2000/svg">
    <path
        d="M14.8947 18C14.8947 15.4953 11.7846 13.4667 7.94737 13.4667C4.11011 13.4667 1 15.4953 1 18M19.5263 14.6V11.2M19.5263 11.2V7.8M19.5263 11.2H16.0526M19.5263 11.2H23M7.94737 10.0667C6.719 10.0667 5.54094 9.58905 4.67235 8.73888C3.80376 7.88872 3.31579 6.73565 3.31579 5.53333C3.31579 4.33102 3.80376 3.17795 4.67235 2.32778C5.54094 1.47762 6.719 1 7.94737 1C9.17574 1 10.3538 1.47762 11.2224 2.32778C12.091 3.17795 12.5789 4.33102 12.5789 5.53333C12.5789 6.73565 12.091 7.88872 11.2224 8.73888C10.3538 9.58905 9.17574 10.0667 7.94737 10.0667Z"
        stroke="black" stroke-width="2" stroke-linecap="round" stroke-linejoin="round" />
</svg>