<svg width="24" height="24" viewBox="0 0 24 24" fill="none" xmlns="http://www.w3.org/2000/svg">
<path d="M1 12C1 6.8146 1 4.2219 2.6104 2.6104C4.223 1 6.8146 1 12 1C17.1854 1 19.7781 1 21.3885 2.6104C23 4.223 23 6.8146 23 12C23 17.1854 23 19.7781 21.3885 21.3885C19.7792 23 17.1854 23 12 23C6.8146 23 4.2219 23 2.6104 21.3885C1 19.7792 1 17.1854 1 12Z" stroke="white" stroke-width="1.5"/>
<path d="M6.5 14.1999L9.0223 11.6776C9.22858 11.4714 9.50832 11.3556 9.8 11.3556C10.0917 11.3556 10.3714 11.4714 10.5777 11.6776L12.3223 13.4222C12.5286 13.6284 12.8083 13.7443 13.1 13.7443C13.3917 13.7443 13.6714 13.6284 13.8777 13.4222L17.5 9.79993M17.5 9.79993V12.5499M17.5 9.79993H14.75" stroke="white" stroke-width="1.5" stroke-linecap="round" stroke-linejoin="round"/>
</svg>
