<svg width="25" height="25" viewBox="0 0 25 25" fill="none" xmlns="http://www.w3.org/2000/svg">
<path fill-rule="evenodd" clip-rule="evenodd" d="M24.8381 4.14208C24.9624 4.33079 25.0178 4.55662 24.995 4.78144C24.9721 5.00626 24.8723 5.21629 24.7125 5.37607L12.6839 17.4045C12.5609 17.5275 12.4073 17.6155 12.2391 17.6597L7.229 18.9682C7.06339 19.0114 6.88936 19.0106 6.72419 18.9657C6.55902 18.9209 6.40845 18.8336 6.28743 18.7125C6.16641 18.5915 6.07914 18.4409 6.03429 18.2757C5.98944 18.1106 5.98857 17.9365 6.03176 17.7709L7.34022 12.7617C7.37934 12.6117 7.45129 12.4722 7.55088 12.3534L19.624 0.287023C19.808 0.103233 20.0574 0 20.3174 0C20.5775 0 20.8269 0.103233 21.0109 0.287023L24.7125 3.98767C24.7582 4.03588 24.8002 4.0875 24.8381 4.14208ZM22.6308 4.68122L20.3174 2.36896L9.17205 13.5154L8.35427 16.6468L11.4854 15.829L22.6308 4.68122Z" fill="white"/>
<path d="M22.6164 19.3203C22.9782 16.2326 23.0938 13.1211 22.9619 10.0151C22.9588 9.94191 22.971 9.86886 22.9976 9.8006C23.0243 9.73234 23.0649 9.67036 23.1168 9.61859L24.4196 8.31798C24.4552 8.28224 24.5004 8.25752 24.5497 8.24679C24.599 8.23607 24.6504 8.23979 24.6977 8.25752C24.745 8.27525 24.7861 8.30623 24.8161 8.34673C24.8462 8.38723 24.8639 8.43554 24.8671 8.48584C25.1116 12.1752 25.0186 15.8791 24.5891 19.5516C24.2766 22.2242 22.1265 24.3192 19.4614 24.6166C14.8346 25.1278 10.1654 25.1278 5.53866 24.6166C2.87486 24.3192 0.723435 22.2242 0.410982 19.5516C-0.136994 14.8665 -0.136994 10.1336 0.410982 5.44844C0.723435 2.77584 2.87354 0.680849 5.53866 0.383453C9.05039 -0.00375945 12.5883 -0.0979308 16.1157 0.101918C16.1662 0.105537 16.2146 0.123523 16.2552 0.153747C16.2957 0.18397 16.3268 0.225165 16.3446 0.272453C16.3624 0.31974 16.3663 0.371138 16.3558 0.420561C16.3453 0.469984 16.3208 0.515361 16.2852 0.551317L14.9705 1.8625C14.9191 1.91385 14.8577 1.95408 14.79 1.98068C14.7224 2.00729 14.65 2.0197 14.5773 2.01715C11.6338 1.9165 8.68692 2.02914 5.75976 2.3542C4.90441 2.44871 4.10595 2.82834 3.49336 3.43176C2.88077 4.03518 2.48982 4.82715 2.38368 5.67974C1.85258 10.2111 1.85258 14.7889 2.38368 19.3203C2.48982 20.1729 2.88077 20.9649 3.49336 21.5683C4.10595 22.1717 4.90441 22.5513 5.75976 22.6459C10.2016 23.1415 14.7984 23.1415 19.2416 22.6459C20.097 22.5513 20.8954 22.1717 21.508 21.5683C22.1206 20.9649 22.5102 20.1729 22.6164 19.3203Z" fill="white"/>
</svg>
