<svg width="24" height="23" viewBox="0 0 24 23" fill="none" xmlns="http://www.w3.org/2000/svg">
<path d="M15.9499 11.3108C15.9499 11.8198 15.8497 12.3238 15.6549 12.7941C15.4601 13.2643 15.1746 13.6916 14.8147 14.0515C14.4548 14.4114 14.0275 14.6969 13.5573 14.8917C13.087 15.0865 12.583 15.1867 12.074 15.1867C11.565 15.1867 11.061 15.0865 10.5908 14.8917C10.1205 14.6969 9.69326 14.4114 9.33335 14.0515C8.97344 13.6916 8.68794 13.2643 8.49316 12.7941C8.29837 12.3238 8.19812 11.8198 8.19812 11.3108C8.19812 10.2829 8.60647 9.29704 9.33335 8.57016C10.0602 7.84329 11.0461 7.43494 12.074 7.43494C13.102 7.43494 14.0878 7.84329 14.8147 8.57016C15.5416 9.29704 15.9499 10.2829 15.9499 11.3108Z" stroke="white" stroke-width="1.5" stroke-linecap="round" stroke-linejoin="round"/>
<path d="M22.0528 13.6331C22.6309 13.4769 22.9199 13.3983 23.034 13.2499C23.148 13.1004 23.148 12.8612 23.148 12.3817V10.24C23.148 9.76051 23.148 9.5202 23.034 9.37181C22.9199 9.22342 22.6309 9.1448 22.0528 8.98976C19.8934 8.40727 18.5412 6.14927 19.0983 4.00313C19.2522 3.41289 19.3286 3.11721 19.2555 2.94445C19.1824 2.7717 18.972 2.6521 18.5523 2.41401L16.642 1.32876C16.2301 1.0962 16.0241 0.978817 15.8392 1.00318C15.6542 1.02754 15.4449 1.23573 15.0275 1.65322C13.4118 3.26449 10.7385 3.26449 9.12168 1.65322C8.70419 1.23684 8.496 1.02865 8.31106 1.00318C8.12613 0.978817 7.92015 1.09509 7.5082 1.32986L5.59793 2.41401C5.17712 2.6521 4.96671 2.7717 4.89473 2.94556C4.82164 3.11721 4.89805 3.41289 5.05087 4.00313C5.6079 6.14927 4.25576 8.40727 2.09522 8.98976C1.51716 9.1448 1.22812 9.22231 1.11406 9.37181C1 9.52131 1 9.76051 1 10.24V12.3817C1 12.8612 1 13.1015 1.11406 13.2499C1.22812 13.3983 1.51716 13.4769 2.09522 13.6331C4.25465 14.2156 5.60679 16.4736 5.04977 18.6186C4.89584 19.2089 4.81943 19.5045 4.89252 19.6773C4.9656 19.85 5.17601 19.9696 5.59572 20.2088L7.50598 21.2919C7.91794 21.5266 8.12391 21.6429 8.30885 21.6186C8.49379 21.5942 8.70308 21.386 9.12057 20.9685C10.7374 19.355 13.4129 19.355 15.0297 20.9685C15.4472 21.3849 15.6553 21.5931 15.8403 21.6186C16.0252 21.6429 16.2312 21.5266 16.6443 21.2919L18.5534 20.2077C18.9742 19.9696 19.1846 19.85 19.2566 19.6762C19.3286 19.5023 19.2533 19.2089 19.1005 18.6186C18.5423 16.4736 19.8934 14.2156 22.0528 13.6331Z" stroke="white" stroke-width="1.5" stroke-linecap="round" stroke-linejoin="round"/>
</svg>
