<svg width="24" height="23" viewBox="0 0 24 23" fill="none" xmlns="http://www.w3.org/2000/svg">
<path d="M5.39999 8.70056H9.79999" stroke="white" stroke-width="1.5" stroke-linecap="round" stroke-linejoin="round"/>
<path d="M21.7163 9.80054H18.8541C16.8906 9.80054 15.3 11.2778 15.3 13.1005C15.3 14.9232 16.8917 16.4005 18.853 16.4005H21.7163C21.8087 16.4005 21.8538 16.4005 21.8923 16.3983C22.4863 16.362 22.9593 15.9231 22.9978 15.372C23 15.3368 23 15.2939 23 15.2092V10.9918C23 10.9071 23 10.8642 22.9978 10.829C22.9582 10.2779 22.4863 9.83904 21.8923 9.80274C21.8538 9.80054 21.8087 9.80054 21.7163 9.80054Z" stroke="white" stroke-width="1.5"/>
<path d="M21.8615 9.80054C21.7757 7.74134 21.5007 6.47854 20.6108 5.58974C19.3227 4.30054 17.2481 4.30054 13.1 4.30054H9.8C5.6519 4.30054 3.5773 4.30054 2.2892 5.58974C1 6.87784 1 8.95244 1 13.1005C1 17.2486 1 19.3232 2.2892 20.6113C3.5773 21.9005 5.6519 21.9005 9.8 21.9005H13.1C17.2481 21.9005 19.3227 21.9005 20.6108 20.6113C21.5007 19.7225 21.7768 18.4597 21.8615 16.4005" stroke="white" stroke-width="1.5"/>
<path d="M5.39999 4.30058L9.50849 1.57588C10.0863 1.20005 10.7607 1 11.45 1C12.1393 1 12.8137 1.20005 13.3915 1.57588L17.5 4.30058" stroke="white" stroke-width="1.5" stroke-linecap="round"/>
<path d="M18.5903 13.1006H18.6013" stroke="white" stroke-width="2" stroke-linecap="round" stroke-linejoin="round"/>
</svg>
