<?xml version="1.0" encoding="UTF-8"?>
<svg version="1.1" xmlns="http://www.w3.org/2000/svg" width="256" height="256">
<path d="M0 0 C3.54685306 2.1884838 5.57844398 4.10177749 7 8 C7.23944454 10.9213723 7.1881367 13.82142833 7.125 16.75 C7.11597656 17.54277344 7.10695313 18.33554687 7.09765625 19.15234375 C7.07417012 21.10169281 7.03830137 23.05088575 7 25 C8.10174561 24.61255615 9.20349121 24.2251123 10.33862305 23.82592773 C22.55278853 19.5325453 34.77303969 15.25681002 47 11 C48.00909424 10.64829742 48.00909424 10.64829742 49.03857422 10.28948975 C52.58378994 9.05476775 56.13332623 7.83367858 59.6875 6.625 C60.49082764 6.3458374 61.29415527 6.0666748 62.12182617 5.77905273 C65.877492 4.51717233 69.04128446 3.59488419 73 4 C74.81762695 5.26586914 74.81762695 5.26586914 76.48828125 7.03515625 C77.10767578 7.67582031 77.72707031 8.31648437 78.36523438 8.9765625 C79.00783203 9.66492187 79.65042969 10.35328125 80.3125 11.0625 C81.6609557 12.46137734 83.01119249 13.85854015 84.36328125 15.25390625 C84.96438721 15.88627197 85.56549316 16.5186377 86.18481445 17.17016602 C88.04941575 19.04981453 89.99056142 20.77675786 92 22.5 C96.06043502 26.0250686 99.95457508 29.69272141 103.8125 33.4375 C104.8015332 34.36949219 104.8015332 34.36949219 105.81054688 35.3203125 C106.43638672 35.93519531 107.06222656 36.55007812 107.70703125 37.18359375 C108.2688208 37.72556396 108.83061035 38.26753418 109.40942383 38.82592773 C114.32263302 45.5415268 114.43549525 52.38793719 114.36328125 60.39453125 C114.36402901 61.99828865 114.36402901 61.99828865 114.36479187 63.63444519 C114.36246229 65.88090893 114.35280015 68.12737582 114.33618164 70.3737793 C114.31245466 73.81908309 114.31564605 77.26361888 114.32226562 80.70898438 C114.31669271 82.89583796 114.30958527 85.08268829 114.30078125 87.26953125 C114.30169266 88.30076614 114.30260406 89.33200104 114.30354309 90.39448547 C114.29401108 91.34945419 114.28447906 92.30442291 114.2746582 93.28833008 C114.27005081 94.12801834 114.26544342 94.9677066 114.26069641 95.83283997 C114 98 114 98 112 101 C111.34 101 110.68 101 110 101 C110 103.97 110 106.94 110 110 C110.94319092 109.98952637 111.88638184 109.97905273 112.8581543 109.96826172 C116.37120018 109.93409359 119.8840684 109.9090592 123.3972168 109.89013672 C124.91514886 109.88010455 126.43306173 109.86647562 127.95092773 109.84912109 C130.1379064 109.82474965 132.32462864 109.81348905 134.51171875 109.8046875 C135.82615967 109.79421387 137.14060059 109.78374023 138.49487305 109.77294922 C143.48881433 110.09644057 145.8566365 111.10156413 149.78198242 114.18603516 C153.78978288 119.39857798 152.60475533 126.77365817 152.48828125 133.0234375 C152.47894647 134.49458613 152.4718335 135.96575039 152.46684265 137.43692017 C152.44782456 141.2940828 152.39877083 145.15029207 152.34332275 149.00708008 C152.29201676 152.9485993 152.26930456 156.89027378 152.24414062 160.83203125 C152.19064505 168.5551204 152.10539777 176.27742621 152 184 C153.10158447 183.99154053 154.20316895 183.98308105 155.33813477 183.97436523 C163.33440551 184.03034286 169.23428674 186.56657841 175.2109375 191.79296875 C179.97141708 197.66561278 181.61162921 203.23050015 181.53125 210.69921875 C181.5350769 211.49729446 181.53890381 212.29537018 181.54284668 213.11763 C181.54554944 214.79075394 181.53830374 216.46392132 181.52148438 218.13696289 C181.49996316 220.69187387 181.5213831 223.2440008 181.546875 225.79882812 C181.54423309 227.43229783 181.53911095 229.06576582 181.53125 230.69921875 C181.53934692 231.45764572 181.54744385 232.21607269 181.55578613 232.9974823 C181.49113083 236.66168718 181.11121418 238.82186607 179.15429688 241.95629883 C176.17985574 244.7780403 173.80583343 245.12471125 169.86541939 245.13142776 C168.59661232 245.13718948 168.59661232 245.13718948 167.30217278 245.1430676 C165.90798223 245.14176787 165.90798223 245.14176787 164.48562622 245.14044189 C163.00474355 245.14489858 163.00474355 245.14489858 161.49394405 245.1494453 C158.17059615 245.1581488 154.84728419 245.15964193 151.52392578 245.16113281 C149.14738894 245.16575977 146.77085285 245.17078426 144.39431763 245.17617798 C137.92742496 245.18931461 131.46053919 245.19578578 124.99363565 245.20018864 C120.95642751 245.20295085 116.91922176 245.20718814 112.88201523 245.21169281 C101.70601871 245.22388484 90.5300241 245.23418465 79.35402107 245.2375679 C78.63872232 245.23778747 77.92342357 245.23800703 77.1864491 245.23823325 C76.11092538 245.23856067 76.11092538 245.23856067 75.0136739 245.2388947 C73.56071099 245.23933817 72.10774807 245.23978473 70.65478516 245.24023438 C69.57370408 245.24056652 69.57370408 245.24056652 68.47078298 245.24090537 C56.78930942 245.24485444 45.10789819 245.26231203 33.42644872 245.2855939 C21.43576553 245.3092994 9.44511363 245.32176937 -2.54559338 245.32293582 C-9.27897418 245.32385297 -16.01227373 245.32961545 -22.74563217 245.34775543 C-29.07719919 245.36418794 -35.40861172 245.36641507 -41.74019241 245.35761642 C-44.0666317 245.3568435 -46.39307913 245.3612222 -48.71949768 245.37107468 C-51.89040407 245.38371822 -55.06075697 245.37795858 -58.23165894 245.36749268 C-59.15665786 245.37554908 -60.08165678 245.38360548 -61.03468597 245.39190602 C-65.83026415 245.35477455 -69.1460693 245.18444166 -73 242 C-76.20562473 237.19156291 -75.37189318 231.64816115 -75.37060547 226.0234375 C-75.37494312 223.90280671 -75.41116284 221.7843201 -75.44921875 219.6640625 C-75.54326551 208.51327343 -73.59218339 200.97670077 -65.91015625 192.7890625 C-61.28884807 188.46072068 -56.99615439 186.01248662 -50.73828125 184.8671875 C-49.84794189 184.7007373 -48.95760254 184.53428711 -48.0402832 184.36279297 C-47.36698975 184.24307129 -46.69369629 184.12334961 -46 184 C-45.99780016 182.96466535 -45.99780016 182.96466535 -45.99555588 181.90841484 C-45.95849076 165.1072855 -45.89948013 148.30639078 -45.81609726 131.50543022 C-45.77630195 123.38056994 -45.743912 115.25580658 -45.72900391 107.13085938 C-45.71598989 100.04845512 -45.6890318 92.96626409 -45.64538693 85.88397992 C-45.62276625 82.13453367 -45.60708966 78.38535046 -45.60811615 74.63582993 C-45.60900115 70.44816185 -45.57875299 66.26126978 -45.54589844 62.07373047 C-45.5509288 60.83295242 -45.55595917 59.59217438 -45.56114197 58.313797 C-45.48348087 51.92712074 -45.37514076 47.81642989 -41 43 C-37.25835995 39.37408077 -33.27373844 37.77128791 -28.375 36.25 C-27.37339844 35.91935547 -27.37339844 35.91935547 -26.3515625 35.58203125 C-23.45408086 34.64904216 -21.06229641 34 -18 34 C-18.01571045 33.23856689 -18.0314209 32.47713379 -18.04760742 31.69262695 C-18.11008453 28.2326606 -18.14903172 24.7728131 -18.1875 21.3125 C-18.21263672 20.11431641 -18.23777344 18.91613281 -18.26367188 17.68164062 C-18.27333984 16.52470703 -18.28300781 15.36777344 -18.29296875 14.17578125 C-18.3086792 13.11270752 -18.32438965 12.04963379 -18.34057617 10.9543457 C-17.81157701 6.36551499 -15.52507625 2.93756354 -12 0 C-7.81974477 -1.39341841 -4.26686312 -0.97485449 0 0 Z " fill="#030404" transform="translate(75,6)"/>
<path d="M0 0 C0 6.6 0 13.2 0 20 C-2.48402344 20.84820312 -4.96804687 21.69640625 -7.52734375 22.5703125 C-8.39125229 22.86533661 -9.25516083 23.16036072 -10.14524841 23.46432495 C-14.58238652 24.97958263 -19.01969813 26.49432966 -23.45727539 28.00830078 C-32.26545011 31.0139244 -41.07252121 34.02259856 -49.87400818 37.04776001 C-53.65256016 38.34631313 -57.43185769 39.64268842 -61.21121216 40.93890381 C-63.02886926 41.56301322 -64.84615095 42.18821705 -66.66305542 42.81451416 C-69.20022069 43.688977 -71.73863027 44.55973157 -74.27734375 45.4296875 C-75.03378174 45.69150818 -75.79021973 45.95332886 -76.56958008 46.2230835 C-81.77226764 48 -81.77226764 48 -84 48 C-84 49.98 -84 51.96 -84 54 C-77.6681624 53.37132641 -71.97808462 51.50277242 -65.96875 49.46484375 C-64.90120483 49.10789932 -63.83365967 48.7509549 -62.73376465 48.38319397 C-59.32059793 47.24024014 -55.91033962 46.0888581 -52.5 44.9375 C-50.26970607 44.19023323 -48.03923871 43.44348388 -45.80859375 42.69726562 C-36.96234947 39.73142075 -28.12095982 36.75574671 -19.3203125 33.65673828 C-18.26114624 33.28424454 -17.20197998 32.91175079 -16.11071777 32.52796936 C-14.10337347 31.81969559 -12.09751218 31.10720031 -10.09338379 30.38987732 C-9.20211792 30.07502884 -8.31085205 29.76018036 -7.39257812 29.43579102 C-6.61338013 29.15751968 -5.83418213 28.87924835 -5.03137207 28.59254456 C-3 28 -3 28 0 28 C0 34.27 0 40.54 0 47 C-2.48402344 47.84820312 -4.96804687 48.69640625 -7.52734375 49.5703125 C-8.39125229 49.86533661 -9.25516083 50.16036072 -10.14524841 50.46432495 C-14.58238652 51.97958263 -19.01969813 53.49432966 -23.45727539 55.00830078 C-32.26545011 58.0139244 -41.07252121 61.02259856 -49.87400818 64.04776001 C-53.65256016 65.34631313 -57.43185769 66.64268842 -61.21121216 67.93890381 C-63.02886926 68.56301322 -64.84615095 69.18821705 -66.66305542 69.81451416 C-69.20022069 70.688977 -71.73863027 71.55973157 -74.27734375 72.4296875 C-75.03378174 72.69150818 -75.79021973 72.95332886 -76.56958008 73.2230835 C-81.77226764 75 -81.77226764 75 -84 75 C-83.34 76.98 -82.68 78.96 -82 81 C-78.25775678 80.32820761 -74.75185775 79.33328377 -71.14672852 78.12988281 C-69.99104874 77.74568176 -68.83536896 77.36148071 -67.64466858 76.96563721 C-66.40196701 76.54900818 -65.15926544 76.13237915 -63.87890625 75.703125 C-62.57444964 75.26790794 -61.26991847 74.83291428 -59.96531677 74.39813232 C-57.22861355 73.48537705 -54.49259219 72.57061557 -51.75708008 71.65429688 C-48.2923529 70.49377706 -44.82635425 69.33711545 -41.35986423 68.18187332 C-38.66100551 67.28216189 -35.96267645 66.38087061 -33.2645092 65.47908783 C-31.37848126 64.8488675 -29.49217048 64.21949378 -27.60585022 63.59014893 C-20.33131628 61.15227815 -20.33131628 61.15227815 -13.1010437 58.58728027 C-12.46321677 58.35523266 -11.82538984 58.12318504 -11.16823483 57.88410568 C-9.39447874 57.2354531 -7.62323626 56.57993895 -5.85215759 55.92401123 C-3 55 -3 55 0 55 C0 61.27 0 67.54 0 74 C-3.72603516 75.27230469 -3.72603516 75.27230469 -7.52734375 76.5703125 C-8.82320656 77.01284866 -8.82320656 77.01284866 -10.14524841 77.46432495 C-14.58238652 78.97958263 -19.01969813 80.49432966 -23.45727539 82.00830078 C-32.26545011 85.0139244 -41.07252121 88.02259856 -49.87400818 91.04776001 C-53.65256016 92.34631313 -57.43185769 93.64268842 -61.21121216 94.93890381 C-63.02886926 95.56301322 -64.84615095 96.18821705 -66.66305542 96.81451416 C-69.20022069 97.688977 -71.73863027 98.55973157 -74.27734375 99.4296875 C-75.03378174 99.69150818 -75.79021973 99.95332886 -76.56958008 100.2230835 C-81.77226764 102 -81.77226764 102 -84 102 C-83.34 103.98 -82.68 105.96 -82 108 C-78.37202095 107.34349069 -74.96568143 106.40461471 -71.46972656 105.23754883 C-70.38379211 104.87659622 -69.29785767 104.51564362 -68.17901611 104.14375305 C-66.42751251 103.55632576 -66.42751251 103.55632576 -64.640625 102.95703125 C-63.42284363 102.55095139 -62.20506226 102.14487152 -60.95037842 101.72648621 C-58.36749879 100.86500537 -55.78530152 100.00151913 -53.20361328 99.13647461 C-49.94712144 98.04538664 -46.68936601 96.95813581 -43.43112946 95.87227058 C-25.55969224 89.94104314 -25.55969224 89.94104314 -7.81866455 83.63374329 C-5.04584269 82.62719023 -2.98098441 82 0 82 C0 88.27 0 94.54 0 101 C-3.72603516 102.27230469 -3.72603516 102.27230469 -7.52734375 103.5703125 C-8.82320656 104.01284866 -8.82320656 104.01284866 -10.14524841 104.46432495 C-14.58238652 105.97958263 -19.01969813 107.49432966 -23.45727539 109.00830078 C-32.26545011 112.0139244 -41.07252121 115.02259856 -49.87400818 118.04776001 C-53.65256016 119.34631313 -57.43185769 120.64268842 -61.21121216 121.93890381 C-63.02886926 122.56301322 -64.84615095 123.18821705 -66.66305542 123.81451416 C-69.20022069 124.688977 -71.73863027 125.55973157 -74.27734375 126.4296875 C-75.03378174 126.69150818 -75.79021973 126.95332886 -76.56958008 127.2230835 C-81.77226764 129 -81.77226764 129 -84 129 C-83.34 130.98 -82.68 132.96 -82 135 C-78.60188217 134.37556035 -75.3918046 133.54679321 -72.11572266 132.45288086 C-71.16927887 132.13842514 -70.22283508 131.82396942 -69.24771118 131.49998474 C-68.23010712 131.15838821 -67.21250305 130.81679169 -66.1640625 130.46484375 C-65.09368744 130.10789932 -64.02331238 129.7509549 -62.92050171 129.38319397 C-60.6454199 128.62382603 -58.37082455 127.86299936 -56.09667969 127.10083008 C-52.70097819 125.96295964 -49.30377103 124.82968995 -45.90625 123.69726562 C-37.0245999 120.73112414 -28.14465945 117.76501778 -19.31152344 114.65673828 C-18.25226654 114.28424454 -17.19300964 113.91175079 -16.10165405 113.52796936 C-14.09521358 112.81972672 -12.09026696 112.10723326 -10.08706665 111.38987732 C-9.19643524 111.07502884 -8.30580383 110.76018036 -7.38818359 110.43579102 C-6.60978119 110.15751968 -5.83137878 109.87924835 -5.02938843 109.59254456 C-3 109 -3 109 0 109 C0 115.27 0 121.54 0 128 C-1.39234863 128.46897705 -2.78469727 128.9379541 -4.21923828 129.42114258 C-9.39797395 131.16675107 -14.57475653 132.91809001 -19.75097656 134.67114258 C-21.98905655 135.42823548 -24.22765909 136.18378549 -26.46679688 136.93774414 C-29.69019874 138.02342368 -32.91166387 139.11468738 -36.1328125 140.20703125 C-37.62846237 140.70877617 -37.62846237 140.70877617 -39.15432739 141.22065735 C-43.96965714 142.85954829 -48.52912449 144.56702725 -53 147 C-52.67 148.32 -52.34 149.64 -52 151 C-45.71602391 150.44047098 -40.28527268 148.94981433 -34.35546875 146.83984375 C-33.01806389 146.37584923 -33.01806389 146.37584923 -31.65364075 145.90248108 C-28.82893682 144.92158586 -26.00801145 143.93037981 -23.1875 142.9375 C-20.34875815 141.94222187 -17.50926727 140.94928135 -14.6678009 139.96180725 C-12.90544541 139.34898502 -11.14470381 138.73149736 -9.38578796 138.10887146 C-8.59098526 137.83180862 -7.79618256 137.55474579 -6.97729492 137.26928711 C-6.2797258 137.02359482 -5.58215668 136.77790253 -4.8634491 136.52476501 C-3 136 -3 136 0 136 C0 164.71 0 193.42 0 223 C-10.89 223 -21.78 223 -33 223 C-33.03738281 219.93074219 -33.07476562 216.86148438 -33.11328125 213.69921875 C-33.15947693 210.73047712 -33.21071772 207.76186256 -33.26245117 204.79321289 C-33.29572924 202.7281871 -33.32375214 200.66306973 -33.34643555 198.59790039 C-33.37992855 195.63127568 -33.43224145 192.66549252 -33.48828125 189.69921875 C-33.49467117 188.7741301 -33.5010611 187.84904144 -33.50764465 186.8959198 C-33.52743881 186.03525406 -33.54723297 185.17458832 -33.56762695 184.2878418 C-33.57873001 183.53061325 -33.58983307 182.7733847 -33.60127258 181.99320984 C-34.11242205 179.43801022 -34.92467688 178.5445133 -37 177 C-44.04974547 176.19363047 -50.12374166 178.22829129 -56.8125 180.3125 C-58.86039304 180.93452966 -60.90856903 181.55562857 -62.95703125 182.17578125 C-63.95686035 182.48596191 -64.95668945 182.79614258 -65.98681641 183.11572266 C-67.99989928 183.70650099 -70.02976747 184.24275078 -72.07177734 184.72412109 C-73.52704834 185.06757568 -73.52704834 185.06757568 -75.01171875 185.41796875 C-75.87627686 185.60512451 -76.74083496 185.79228027 -77.6315918 185.98510742 C-80.91865513 187.39365523 -82.15471735 188.94775479 -84 192 C-84.63792809 195.47201124 -84.63792809 195.47201124 -84.609375 199.26953125 C-84.63417938 200.29103523 -84.63417938 200.29103523 -84.65948486 201.33317566 C-84.70779303 203.49304371 -84.7292951 205.65220875 -84.75 207.8125 C-84.77817444 209.28323817 -84.80810394 210.75394383 -84.83984375 212.22460938 C-84.91683211 215.81672404 -84.95750032 219.40665223 -85 223 C-91.27 223 -97.54 223 -104 223 C-104.11569272 198.83501657 -104.20494623 174.67009973 -104.25906086 150.50489521 C-104.28485391 139.28482453 -104.32002563 128.06492898 -104.37719727 116.8449707 C-104.42699834 107.06683668 -104.459283 97.28882946 -104.47044247 87.51057214 C-104.47696679 82.33191907 -104.49232384 77.15362883 -104.52865028 71.97509193 C-104.56255756 67.10199494 -104.57306358 62.22941065 -104.56553841 57.35620689 C-104.56691531 55.5667276 -104.57687921 53.77723138 -104.59602737 51.987854 C-104.62088413 49.54545512 -104.61493355 47.10499505 -104.60127258 44.66255188 C-104.61583679 43.9533997 -104.630401 43.24424753 -104.64540654 42.51360589 C-104.58796141 38.7174907 -104.09340778 37.11624494 -101.68630409 34.12063122 C-98.42147979 31.54330262 -95.13142469 30.26913675 -91.21899414 29.03320312 C-90.45071289 28.77715805 -89.68243164 28.52111298 -88.89086914 28.25730896 C-86.36007979 27.41771934 -83.82290279 26.59954415 -81.28515625 25.78125 C-79.5093516 25.19639112 -77.73400311 24.61014555 -75.95909119 24.02258301 C-71.28504582 22.47916204 -66.60537857 20.9535554 -61.92419434 19.4319458 C-56.28021596 17.59391513 -50.64293517 15.73547462 -45.00474453 13.87978363 C-40.60739706 12.43288484 -36.20915306 10.98896902 -31.80763245 9.55480957 C-30.18686342 9.0257081 -28.56616944 8.49637668 -26.94555664 7.96679688 C-26.17593629 7.71566383 -25.40631594 7.46453079 -24.61337376 7.20578766 C-18.61763565 5.23572625 -12.69357945 3.10090504 -6.78831482 0.87512207 C-4 0 -4 0 0 0 Z " fill="#C6ECFB" transform="translate(142,20)"/>
<path d="M0 0 C11.17875 -0.04125 22.3575 -0.0825 33.875 -0.125 C37.40687012 -0.14320801 40.93874023 -0.16141602 44.57763672 -0.18017578 C48.88500977 -0.18920898 48.88500977 -0.18920898 50.90042114 -0.19088745 C52.31034608 -0.19396195 53.7202657 -0.20100295 55.13015747 -0.21115112 C57.2637854 -0.22574309 59.39709153 -0.22781363 61.53076172 -0.22705078 C62.73433319 -0.231492 63.93790466 -0.23593323 65.177948 -0.24050903 C68 0 68 0 70 2 C70.30780029 4.723526 70.30780029 4.723526 70.38574219 8.23461914 C70.41786804 9.54680923 70.4499939 10.85899933 70.48309326 12.21095276 C70.50607603 13.65232749 70.5272918 15.09373132 70.546875 16.53515625 C70.55752235 17.26127043 70.56816971 17.98738461 70.57913971 18.73550224 C70.63262385 22.584286 70.67135309 26.43294003 70.70019531 30.28198242 C70.72680247 33.45764373 70.78234254 36.63071162 70.86425781 39.80541992 C70.963363 43.64658066 71.01248879 47.48540306 71.02664948 51.3277874 C71.04001003 52.78592909 71.07029024 54.24402515 71.11843109 55.70143318 C71.47420832 67.13115279 71.47420832 67.13115279 67.77526855 71.82028198 C65.06347656 74.22045898 65.06347656 74.22045898 62.35211182 76.19041443 C58.60519176 79.07308881 58.0564175 81.42219082 57 86 C56.67 89.3 56.34 92.6 56 96 C37.52 96 19.04 96 0 96 C0 64.32 0 32.64 0 0 Z " fill="#EAF3F6" transform="translate(149,124)"/>
<path d="M0 0 C7.8617558 6.73864783 7.8617558 6.73864783 11.19140625 10.12890625 C11.90876953 10.85400391 12.62613281 11.57910156 13.36523438 12.32617188 C14.09033203 13.06416016 14.81542969 13.80214844 15.5625 14.5625 C21.25484254 20.41770032 21.25484254 20.41770032 27.40234375 25.77734375 C30.50551412 28.43253765 31.81267965 30.28424872 32.25828552 34.36575317 C32.2646981 35.67574783 32.2646981 35.67574783 32.27124023 37.01220703 C32.28142685 38.00648712 32.29161346 39.00076721 32.30210876 40.025177 C32.30424881 41.09194672 32.30638885 42.15871643 32.30859375 43.2578125 C32.33373915 45.51432566 32.35913738 47.77083602 32.38476562 50.02734375 C32.41359631 53.58707034 32.43761415 57.14674847 32.45629883 60.70654297 C32.47785314 64.14054744 32.51726899 67.57399764 32.55859375 71.0078125 C32.55870956 72.07863068 32.55882538 73.14944885 32.5589447 74.25271606 C32.57228348 75.24069183 32.58562225 76.2286676 32.59936523 77.24658203 C32.60443588 78.11832062 32.60950653 78.9900592 32.61473083 79.88821411 C32.80543907 80.93354813 32.80543907 80.93354813 33 82 C33.99 82.66 34.98 83.32 36 84 C36 87.3 36 90.6 36 94 C24.12 94 12.24 94 0 94 C0 62.98 0 31.96 0 0 Z " fill="#5EB6FE" transform="translate(149,23)"/>
<path d="M0 0 C1.3756311 -0.00574036 1.3756311 -0.00574036 2.77905273 -0.01159668 C4.71566873 -0.01431549 6.65232147 -0.00695646 8.58886719 0.00976562 C11.55226553 0.03117606 14.51323951 0.00996331 17.4765625 -0.015625 C19.35938035 -0.01298172 21.24219669 -0.00785673 23.125 0 C24.01050537 -0.00809692 24.89601074 -0.01619385 25.80834961 -0.02453613 C31.92089844 0.0685831 31.92089844 0.0685831 35.11694336 2.37329102 C37.09283291 5.32294271 37.12908008 7.43947758 37.125 10.96875 C37.14691406 12.08121094 37.16882813 13.19367188 37.19140625 14.33984375 C36.34900563 18.61463445 34.99838985 19.87293148 31.5625 22.53125 C28.53699912 23.25383385 25.59974159 23.23295436 22.5 23.1953125 C21.19663696 23.20248795 21.19663696 23.20248795 19.86694336 23.20980835 C18.03464949 23.21320225 16.20229465 23.20403544 14.37011719 23.18310547 C11.57088781 23.15633023 8.77566767 23.18286803 5.9765625 23.21484375 C4.19269951 23.21153956 2.40883901 23.20513313 0.625 23.1953125 C-0.62518921 23.21049423 -0.62518921 23.21049423 -1.90063477 23.22598267 C-6.21102791 23.13936524 -7.94567579 22.91177017 -11.46459961 20.18920898 C-13.91064929 16.89380707 -14.08018699 15.03941884 -14 10.96875 C-14.00193359 9.29619141 -14.00193359 9.29619141 -14.00390625 7.58984375 C-12.53167679 -0.36019532 -6.77769148 -0.06197416 0 0 Z " fill="#0B0D0E" transform="translate(172.4375,161.46875)"/>
<path d="M0 0 C1.44789917 -0.00218285 1.44789917 -0.00218285 2.92504883 -0.00440979 C4.96601377 -0.00274968 7.00699109 0.00882407 9.04785156 0.02954102 C12.17566995 0.05848428 15.30179299 0.05015458 18.4296875 0.03710938 C20.41146659 0.04334699 22.39324032 0.05173811 24.375 0.0625 C25.31255127 0.05956436 26.25010254 0.05662872 27.21606445 0.05360413 C28.52256958 0.07263039 28.52256958 0.07263039 29.85546875 0.09204102 C30.62141357 0.097444 31.3873584 0.10284698 32.17651367 0.1084137 C34.7444143 0.60345627 35.63147635 1.42072151 37.1875 3.49609375 C37.62109375 6.7109375 37.62109375 6.7109375 37.625 10.43359375 C37.64433594 11.65949219 37.66367188 12.88539063 37.68359375 14.1484375 C37.1875 17.49609375 37.1875 17.49609375 35.74633789 19.67211914 C31.89544228 22.41709015 28.37152306 22.06960224 23.75 22.02734375 C22.8329126 22.03117065 21.9158252 22.03499756 20.97094727 22.03894043 C19.03433127 22.04165924 17.09767853 22.03430021 15.16113281 22.01757812 C12.19773447 21.99616769 9.23676049 22.01738044 6.2734375 22.04296875 C4.39061965 22.04032547 2.50780331 22.03520048 0.625 22.02734375 C-0.26050537 22.03544067 -1.14601074 22.0435376 -2.05834961 22.05187988 C-8.16898659 21.95878977 -8.16898659 21.95878977 -11.37133789 19.65625 C-13.35681083 16.68022686 -13.31108622 14.54723917 -13.25 10.99609375 C-13.24871094 9.87203125 -13.24742187 8.74796875 -13.24609375 7.58984375 C-12.08847506 -0.66992205 -7.12160251 -0.08533286 0 0 Z " fill="#040404" transform="translate(171.8125,133.50390625)"/>
<path d="M0 0 C18.48 0 36.96 0 56 0 C56 5.28 56 10.56 56 16 C37.52 16 19.04 16 0 16 C0 10.72 0 5.44 0 0 Z " fill="#B0BEC9" transform="translate(149,227)"/>
<path d="M0 0 C7.8617558 6.73864783 7.8617558 6.73864783 11.19140625 10.12890625 C11.90876953 10.85400391 12.62613281 11.57910156 13.36523438 12.32617188 C14.09033203 13.06416016 14.81542969 13.80214844 15.5625 14.5625 C21.25484254 20.41770032 21.25484254 20.41770032 27.40234375 25.77734375 C30.50551412 28.43253765 31.81267965 30.28424872 32.25828552 34.36575317 C32.2646981 35.67574783 32.2646981 35.67574783 32.27124023 37.01220703 C32.28142685 38.00648712 32.29161346 39.00076721 32.30210876 40.025177 C32.30424881 41.09194672 32.30638885 42.15871643 32.30859375 43.2578125 C32.33373915 45.51432566 32.35913738 47.77083602 32.38476562 50.02734375 C32.41359631 53.58707034 32.43761415 57.14674847 32.45629883 60.70654297 C32.47785314 64.14054744 32.51726899 67.57399764 32.55859375 71.0078125 C32.55870956 72.07863068 32.55882538 73.14944885 32.5589447 74.25271606 C32.57228348 75.24069183 32.58562225 76.2286676 32.59936523 77.24658203 C32.60443588 78.11832062 32.60950653 78.9900592 32.61473083 79.88821411 C32.80543907 80.93354813 32.80543907 80.93354813 33 82 C33.99 82.66 34.98 83.32 36 84 C36 87.3 36 90.6 36 94 C24.12 94 12.24 94 0 94 C0 62.98 0 31.96 0 0 Z M1 6 C1 34.71 1 63.42 1 93 C8.92 93 16.84 93 25 93 C25.09051771 85.01981961 25.16383979 77.04004107 25.20724869 69.05948448 C25.22808715 65.3534265 25.25633503 61.6477392 25.30175781 57.94189453 C25.34535112 54.36274214 25.36916523 50.78394536 25.37950897 47.20454788 C25.38687635 45.84181753 25.40126338 44.47910573 25.42292023 43.11652756 C25.79847589 33.25198985 25.79847589 33.25198985 21 25 C20.27981689 24.19965332 19.55963379 23.39930664 18.81762695 22.57470703 C18.04894287 21.81013184 17.28025879 21.04555664 16.48828125 20.2578125 C15.64845703 19.41992188 14.80863281 18.58203125 13.94335938 17.71875 C13.07517578 16.8628125 12.20699219 16.006875 11.3125 15.125 C10.43271484 14.24585938 9.55292969 13.36671875 8.64648438 12.4609375 C5.26480981 8.3579094 5.26480981 8.3579094 1 6 Z " fill="#299AE9" transform="translate(149,23)"/>
<path d="M0 0 C0 28.71 0 57.42 0 87 C-10.89 87 -21.78 87 -33 87 C-33 73.47 -33 59.94 -33 46 C-32.67 46 -32.34 46 -32 46 C-32 59.2 -32 72.4 -32 86 C-23.75 86 -15.5 86 -7 86 C-7 58.61 -7 31.22 -7 3 C-7.66 2.67 -8.32 2.34 -9 2 C-3.375 0 -3.375 0 0 0 Z " fill="#91D6EA" transform="translate(142,156)"/>
<path d="M0 0 C4.11001606 2.70887422 7.02629671 5.72694507 9.75 9.8125 C9.75 13.4425 9.75 17.0725 9.75 20.8125 C-2.13 20.8125 -14.01 20.8125 -26.25 20.8125 C-26.25 9.56770833 -26.25 9.56770833 -21.25 3.8125 C-14.66452223 -1.32417266 -7.93513691 -2.89937695 0 0 Z " fill="#B9E96A" transform="translate(238.25,199.1875)"/>
<path d="M0 0 C11.88 0 23.76 0 36 0 C36 5.28 36 10.56 36 16 C24.12 16 12.24 16 0 16 C0 10.72 0 5.44 0 0 Z " fill="#B5C3CE" transform="translate(212,227)"/>
<path d="M0 0 C0 13.2 0 26.4 0 40 C-4.95 40 -9.9 40 -15 40 C-15 28.12 -15 16.24 -15 4 C-3 0 -3 0 0 0 Z " fill="#2A9EF0" transform="translate(102,203)"/>
<path d="M0 0 C0.81533203 -0.00708984 1.63066406 -0.01417969 2.47070312 -0.02148438 C8.4173524 0.04203776 8.4173524 0.04203776 10.66381836 1.75 C12.74242266 4.50394153 12.45020012 7.56344433 12.4375 10.875 C12.4684375 12.19371094 12.499375 13.51242188 12.53125 14.87109375 C11.9375 18.4375 11.9375 18.4375 9.875 20.875 C6.19640624 22.83169881 3.59369746 23.0041562 -0.5625 23 C-1.8515625 23.02191406 -3.140625 23.04382813 -4.46875 23.06640625 C-8.96342069 22.27983888 -10.41544012 21.12036592 -13.0625 17.4375 C-13.69140625 14.24609375 -13.69140625 14.24609375 -13.625 10.875 C-13.62693359 9.20244141 -13.62693359 9.20244141 -13.62890625 7.49609375 C-13.0625 4.4375 -13.0625 4.4375 -11.59375 2.0625 C-7.8072612 -0.36833231 -4.40483244 -0.10845894 0 0 Z " fill="#090909" transform="translate(172.0625,190.5625)"/>
<path d="M0 0 C0 11.22 0 22.44 0 34 C-4.95 34 -9.9 34 -15 34 C-15 24.1 -15 14.2 -15 4 C-2 0 -2 0 0 0 Z " fill="#5CAFF5" transform="translate(80,209)"/>
<path d="M0 0 C0 6.93 0 13.86 0 21 C-7.26 21 -14.52 21 -22 21 C-20.92603932 12.40831458 -19.5344089 8.7909127 -13.0703125 3.38671875 C-8.11408592 -0.03635603 -6.70922269 0 0 0 Z " fill="#B8E86A" transform="translate(30,199)"/>
<path d="M0 0 C7.26 0 14.52 0 22 0 C22 5.28 22 10.56 22 16 C14.74 16 7.48 16 0 16 C0 10.72 0 5.44 0 0 Z " fill="#B6C4CF" transform="translate(8,227)"/>
<path d="M0 0 C2.5 0.125 2.5 0.125 3.5 1.125 C3.58851529 3.71859322 3.61525945 6.28539691 3.59765625 8.87890625 C3.5962413 9.65435287 3.59482635 10.4297995 3.59336853 11.22874451 C3.58775345 13.71503494 3.57519846 16.2012366 3.5625 18.6875 C3.55748694 20.36913933 3.5529237 22.05078006 3.54882812 23.73242188 C3.53777913 27.86331566 3.52050445 31.99414276 3.5 36.125 C1.19 36.125 -1.12 36.125 -3.5 36.125 C-3.52465098 31.15877651 -3.54283649 26.19258834 -3.55493164 21.22631836 C-3.5599719 19.53555684 -3.56680405 17.84479971 -3.57543945 16.15405273 C-3.58751857 13.72899293 -3.59323123 11.30399056 -3.59765625 8.87890625 C-3.60281754 8.11848526 -3.60797882 7.35806427 -3.61329651 6.57460022 C-3.61349238 4.7576743 -3.56197277 2.94086873 -3.5 1.125 C-2.5 0.125 -2.5 0.125 0 0 Z " fill="#5EB6FE" transform="translate(91.5,205.875)"/>
<path d="M0 0 C11.22 0 22.44 0 34 0 C34 2.31 34 4.62 34 7 C22.78 7 11.56 7 0 7 C0 4.69 0 2.38 0 0 Z " fill="#C8EFFE" transform="translate(167,141)"/>
<path d="M0 0 C11.22 0 22.44 0 34 0 C34 1.98 34 3.96 34 6 C22.78 6 11.56 6 0 6 C0 4.02 0 2.04 0 0 Z " fill="#C8EFFE" transform="translate(167,170)"/>
<path d="M0 0 C3.0625 0.25 3.0625 0.25 6 1 C7.17426264 3.34852528 7.11508173 4.73774065 7.09765625 7.3515625 C7.09443359 8.20234375 7.09121094 9.053125 7.08789062 9.9296875 C7.07951172 10.81914062 7.07113281 11.70859375 7.0625 12.625 C7.05798828 13.5221875 7.05347656 14.419375 7.04882812 15.34375 C7.03702611 17.56252831 7.01909039 19.78127243 7 22 C4.03 22.66 1.06 23.32 -2 24 C-2.05787784 20.37506666 -2.0935542 16.75025143 -2.125 13.125 C-2.14175781 12.09246094 -2.15851563 11.05992188 -2.17578125 9.99609375 C-2.18222656 9.00996094 -2.18867187 8.02382813 -2.1953125 7.0078125 C-2.20578613 6.09660645 -2.21625977 5.18540039 -2.22705078 4.24658203 C-2 2 -2 2 0 0 Z " fill="#8E86BF" transform="translate(67,13)"/>
<path d="M0 0 C5.79098311 -0.34745899 9.99195303 -0.30075823 15 3 C17.79648597 5.54225997 19.90316661 7.85474992 22 11 C22 14.63 22 18.26 22 22 C10.12 22 -1.76 22 -14 22 C-14 21.67 -14 21.34 -14 21 C-4.43 21 5.14 21 15 21 C14.15893985 9.47445331 14.15893985 9.47445331 8 2 C5.22800046 1.24914298 2.90520292 1.09848145 0 1 C0 0.67 0 0.34 0 0 Z " fill="#8CC32E" transform="translate(226,198)"/>
<path d="M0 0 C0 6.93 0 13.86 0 21 C-7.26 21 -14.52 21 -22 21 C-22 20.67 -22 20.34 -22 20 C-17.05 20 -12.1 20 -7 20 C-7 14.06 -7 8.12 -7 2 C-7.66 1.67 -8.32 1.34 -9 1 C-7 0 -7 0 0 0 Z " fill="#96D42E" transform="translate(30,199)"/>
<path d="M0 0 C0.33 1.65 0.66 3.3 1 5 C-2.4228971 7.16182975 -5.76954622 8.83621472 -9.5625 10.25 C-10.49191406 10.60578125 -11.42132813 10.9615625 -12.37890625 11.328125 C-15.11717834 12.03003677 -16.41884321 12.09626659 -19 11 C-20.25 8.9375 -20.25 8.9375 -21 7 C-16.02224291 1.20920925 -7.34631714 -0.65300597 0 0 Z " fill="#0B0D0E" transform="translate(78,171)"/>
<path d="M0 0 C0 6.6 0 13.2 0 20 C-2.31 20.66 -4.62 21.32 -7 22 C-7.04898438 20.72382812 -7.09796875 19.44765625 -7.1484375 18.1328125 C-7.22346191 16.46351928 -7.29900988 14.79424954 -7.375 13.125 C-7.42140625 11.86236328 -7.42140625 11.86236328 -7.46875 10.57421875 C-7.50742188 9.76855469 -7.54609375 8.96289062 -7.5859375 8.1328125 C-7.6173584 7.38918457 -7.6487793 6.64555664 -7.68115234 5.87939453 C-7.85419551 3.75989026 -7.85419551 3.75989026 -10 2 C-6.38026598 0.68373308 -3.90432869 0 0 0 Z " fill="#91D9EE" transform="translate(142,20)"/>
<path d="M0 0 C2.31 0 4.62 0 7 0 C7 5.28 7 10.56 7 16 C-4.88 16 -16.76 16 -29 16 C-29 15.67 -29 15.34 -29 15 C-19.43 15 -9.86 15 0 15 C0 10.05 0 5.1 0 0 Z " fill="#98A4B1" transform="translate(241,227)"/>
<path d="M0 0 C0 6.27 0 12.54 0 19 C-2.31 19.66 -4.62 20.32 -7 21 C-7 15.06 -7 9.12 -7 3 C-7.66 2.67 -8.32 2.34 -9 2 C-3.375 0 -3.375 0 0 0 Z " fill="#91D9EE" transform="translate(142,102)"/>
<path d="M0 0 C0 6.27 0 12.54 0 19 C-2.31 19.66 -4.62 20.32 -7 21 C-7 15.06 -7 9.12 -7 3 C-7.66 2.67 -8.32 2.34 -9 2 C-3.375 0 -3.375 0 0 0 Z " fill="#90D9ED" transform="translate(142,75)"/>
<path d="M0 0 C0 6.27 0 12.54 0 19 C-2.31 19.66 -4.62 20.32 -7 21 C-7 15.06 -7 9.12 -7 3 C-7.66 2.67 -8.32 2.34 -9 2 C-3.375 0 -3.375 0 0 0 Z " fill="#90D9EE" transform="translate(142,48)"/>
<path d="M0 0 C0 6.27 0 12.54 0 19 C-2.31 19.66 -4.62 20.32 -7 21 C-7 15.06 -7 9.12 -7 3 C-7.66 2.67 -8.32 2.34 -9 2 C-3.375 0 -3.375 0 0 0 Z " fill="#90D9EE" transform="translate(142,129)"/>
<path d="M0 0 C2.31 0 4.62 0 7 0 C7 5.28 7 10.56 7 16 C-0.26 16 -7.52 16 -15 16 C-15 15.67 -15 15.34 -15 15 C-10.05 15 -5.1 15 0 15 C0 10.05 0 5.1 0 0 Z " fill="#99A6B3" transform="translate(23,227)"/>
<path d="M0 0 C2.0625 0.4375 2.0625 0.4375 4 1 C3.236875 1.825 2.47375 2.65 1.6875 3.5 C-2.83527376 8.94526586 -4.27985939 15.08665019 -5 22 C-6.65 22 -8.3 22 -10 22 C-10.45755186 15.59427399 -9.58439074 11.3765861 -6 6 C-3.3125 3.0625 -3.3125 3.0625 -1 1 C-0.67 0.67 -0.34 0.34 0 0 Z " fill="#D6EDF6" transform="translate(209,197)"/>
<path d="M0 0 C0.66 0.33 1.32 0.66 2 1 C2 7.6 2 14.2 2 21 C0.68 21.33 -0.64 21.66 -2 22 C-2 15.07 -2 8.14 -2 1 C-1.34 0.67 -0.68 0.34 0 0 Z " fill="#A8A2D3" transform="translate(67,15)"/>
<path d="M0 0 C2.31 0 4.62 0 7 0 C7 2.31 7 4.62 7 7 C-4.22 7 -15.44 7 -27 7 C-27 6.67 -27 6.34 -27 6 C-18.09 6 -9.18 6 0 6 C0 4.02 0 2.04 0 0 Z " fill="#8EC5D6" transform="translate(194,141)"/>
<path d="M0 0 C3.3 0 6.6 0 10 0 C10 2.31 10 4.62 10 7 C6.7 7 3.4 7 0 7 C0 4.69 0 2.38 0 0 Z " fill="#8ACEE2" transform="translate(167,198)"/>
<path d="M0 0 C2.31 0 4.62 0 7 0 C7 1.98 7 3.96 7 6 C4.69 6 2.38 6 0 6 C0 4.02 0 2.04 0 0 Z " fill="#9AE6FC" transform="translate(194,170)"/>
<path d="M0 0 C0.99 0 1.98 0 3 0 C3 1.98 3 3.96 3 6 C2.01 6 1.02 6 0 6 C0 4.02 0 2.04 0 0 Z " fill="#C2EEFD" transform="translate(167,199)"/>
</svg>
